# xmcd
#
# Track frame offsets:
#	150
#	17098
#	32541
#	48887
#	66893
#	85259
#	99304
#	116159
#	136253
#	151165
#	166437
#	181147
#	200357
#	216376
#	235853
#	252178
#	268434
#	283814
#	294087
#	309481
#
# Disc length: 4386 seconds
#
# Revision: 1
# Processed by: cddbd v1.5.2PL0 Copyright (c) Steve Scherf et al.
# Submitted via: audiograbber 1.83.01
#
DISCID=1a112014
DTITLE=TSP Country - TSP Country 018
DYEAR=2006
DGENRE=Country
TTITLE0=Chaning Horses  - Lee Gibson
TTITLE1=Pardon Me  - Kristi Warner
TTITLE2=Tennessee Rock  - Ronnie Tango
TTITLE3=One Day Closer  - Gene Zierler
TTITLE4=Pardon Me  - Don Martin
TTITLE5=Tennessee Rock  - Bill Workman
TTITLE6=One Day Closer - Darrell Donaldson
TTITLE7=Weather Out The Storm  - Mike Cunningham
TTITLE8=Dance With Me Little Snowman  - Charlotte Bradford
TTITLE9=Your Heartache  - Norman Lee
TTITLE10=My Last Rodeo  - Mike Bryant
TTITLE11=I Wanna Go  - Derek Herman
TTITLE12=One Good Day  - Gene Zierler
TTITLE13=Holding On - Mike Bryant
TTITLE14=With All I Am  - Bob Blackshear
TTITLE15=It´s Your Love  - Don Martin
TTITLE16=Divicita  - Mike Cunningham
TTITLE17=No More Rooftops Tonight  - Charlotte Bradford
TTITLE18=Sharing God´s Good News  - Bob Blackshear
TTITLE19=Leftover Love  - Dixie Vornbrock
EXTD=
EXTT0=
EXTT1=
EXTT2=
EXTT3=
EXTT4=
EXTT5=
EXTT6=
EXTT7=
EXTT8=
EXTT9=
EXTT10=
EXTT11=
EXTT12=
EXTT13=
EXTT14=
EXTT15=
EXTT16=
EXTT17=
EXTT18=
EXTT19=
PLAYORDER=
